<svg xmlns="http://www.w3.org/2000/svg" viewBox="0 0 173.18 175.57"><defs><style>.cls-1{fill:#f94144;}</style></defs><title>memberimg</title><g id="Character"><circle class="cls-1" cx="22.17" cy="101.45" r="13.85"/><circle class="cls-1" cx="86.59" cy="109.76" r="13.85"/><circle class="cls-1" cx="151.02" cy="101.45" r="13.85"/><path class="cls-1" d="M11.19,115.3h22a11.19,11.19,0,0,1,11.19,11.19v40.77a0,0,0,0,1,0,0H0a0,0,0,0,1,0,0V126.49A11.19,11.19,0,0,1,11.19,115.3Z"/><path class="cls-1" d="M75.61,123.62h22a11.19,11.19,0,0,1,11.19,11.19v40.77a0,0,0,0,1,0,0H64.42a0,0,0,0,1,0,0V134.8A11.19,11.19,0,0,1,75.61,123.62Z"/><path class="cls-1" d="M140,115.3h22a11.19,11.19,0,0,1,11.19,11.19v40.77a0,0,0,0,1,0,0H128.85a0,0,0,0,1,0,0V126.49A11.19,11.19,0,0,1,140,115.3Z"/><polygon class="cls-1" points="122.81 3.18 122.81 19.81 50.27 19.81 50.27 3.18 64.42 3.18 64.42 0 75.09 0 75.09 3.18 98.09 3.18 98.09 0 108.76 0 108.76 3.18 122.81 3.18"/><path class="cls-1" d="M207.06,220.51v44.72H279.6V220.51Zm45,37.05-8.74-4.68-8.81,4.54,1.76-9.76-7-7,9.82-1.35,4.46-8.85,4.32,8.92,9.8,1.5-7.16,6.87Z" transform="translate(-156.79 -194.7)"/></g></svg>