<svg xmlns="http://www.w3.org/2000/svg" version="1.1" xmlns:xlink="http://www.w3.org/1999/xlink" xmlns:svgjs="http://svgjs.com/svgjs" width="1920" height="1280" preserveAspectRatio="none" viewBox="0 0 1920 1280"><g mask="url(&quot;#SvgjsMask1435&quot;)" fill="none"><rect width="1920" height="1280" x="0" y="0" fill="url(#SvgjsLinearGradient1436)"></rect><use xlink:href="#SvgjsSymbol1443" x="0" y="0"></use><use xlink:href="#SvgjsSymbol1443" x="0" y="720"></use><use xlink:href="#SvgjsSymbol1443" x="720" y="0"></use><use xlink:href="#SvgjsSymbol1443" x="720" y="720"></use><use xlink:href="#SvgjsSymbol1443" x="1440" y="0"></use><use xlink:href="#SvgjsSymbol1443" x="1440" y="720"></use></g><defs><mask id="SvgjsMask1435"><rect width="1920" height="1280" fill="#ffffff"></rect></mask><linearGradient x1="8.33%" y1="-12.5%" x2="91.67%" y2="112.5%" gradientUnits="userSpaceOnUse" id="SvgjsLinearGradient1436"><stop stop-color="rgba(3, 20, 38, 1)" offset="0.3"></stop><stop stop-color="rgba(2, 31, 70, 1)" offset="1"></stop></linearGradient><path d="M-1 0 a1 1 0 1 0 2 0 a1 1 0 1 0 -2 0z" id="SvgjsPath1439"></path><path d="M-3 0 a3 3 0 1 0 6 0 a3 3 0 1 0 -6 0z" id="SvgjsPath1441"></path><path d="M-5 0 a5 5 0 1 0 10 0 a5 5 0 1 0 -10 0z" id="SvgjsPath1440"></path><path d="M2 -2 L-2 2z" id="SvgjsPath1442"></path><path d="M6 -6 L-6 6z" id="SvgjsPath1438"></path><path d="M30 -30 L-30 30z" id="SvgjsPath1437"></path></defs><symbol id="SvgjsSymbol1443"><use xlink:href="#SvgjsPath1437" x="30" y="30" stroke="#1c538e" stroke-width="3"></use><use xlink:href="#SvgjsPath1438" x="30" y="90" stroke="#1c538e"></use><use xlink:href="#SvgjsPath1438" x="30" y="150" stroke="#1c538e"></use><use xlink:href="#SvgjsPath1439" x="30" y="210" stroke="#1c538e"></use><use xlink:href="#SvgjsPath1440" x="30" y="270" stroke="#1c538e"></use><use xlink:href="#SvgjsPath1440" x="30" y="330" stroke="#1c538e"></use><use xlink:href="#SvgjsPath1441" x="30" y="390" stroke="#1c538e"></use><use xlink:href="#SvgjsPath1442" x="30" y="450" stroke="#1c538e"></use><use xlink:href="#SvgjsPath1440" x="30" y="510" stroke="#1c538e"></use><use xlink:href="#SvgjsPath1439" x="30" y="570" stroke="#1c538e"></use><use xlink:href="#SvgjsPath1440" x="30" y="630" stroke="#1c538e"></use><use xlink:href="#SvgjsPath1438" x="30" y="690" stroke="#1c538e"></use><use xlink:href="#SvgjsPath1438" x="90" y="30" stroke="#1c538e"></use><use xlink:href="#SvgjsPath1438" x="90" y="90" stroke="#1c538e"></use><use xlink:href="#SvgjsPath1439" x="90" y="150" stroke="#1c538e"></use><use xlink:href="#SvgjsPath1438" x="90" y="210" stroke="#1c538e"></use><use xlink:href="#SvgjsPath1441" x="90" y="270" stroke="#1c538e"></use><use xlink:href="#SvgjsPath1440" x="90" y="330" stroke="#1c538e"></use><use xlink:href="#SvgjsPath1440" x="90" y="390" stroke="#1c538e"></use><use xlink:href="#SvgjsPath1442" x="90" y="450" stroke="#1c538e"></use><use xlink:href="#SvgjsPath1439" x="90" y="510" stroke="#1c538e"></use><use xlink:href="#SvgjsPath1441" x="90" y="570" stroke="#1c538e"></use><use xlink:href="#SvgjsPath1438" x="90" y="630" stroke="#1c538e"></use><use xlink:href="#SvgjsPath1442" x="90" y="690" stroke="#1c538e"></use><use xlink:href="#SvgjsPath1440" x="150" y="30" stroke="#1c538e"></use><use xlink:href="#SvgjsPath1438" x="150" y="90" stroke="#1c538e"></use><use xlink:href="#SvgjsPath1440" x="150" y="150" stroke="#1c538e"></use><use xlink:href="#SvgjsPath1438" x="150" y="210" stroke="#1c538e"></use><use xlink:href="#SvgjsPath1438" x="150" y="270" stroke="#1c538e"></use><use xlink:href="#SvgjsPath1438" x="150" y="330" stroke="#1c538e"></use><use xlink:href="#SvgjsPath1438" x="150" y="390" stroke="#1c538e"></use><use xlink:href="#SvgjsPath1440" x="150" y="450" stroke="#1c538e"></use><use xlink:href="#SvgjsPath1438" x="150" y="510" stroke="#1c538e"></use><use xlink:href="#SvgjsPath1441" x="150" y="570" stroke="#1c538e"></use><use xlink:href="#SvgjsPath1438" x="150" y="630" stroke="#1c538e"></use><use xlink:href="#SvgjsPath1439" x="150" y="690" stroke="#1c538e"></use><use xlink:href="#SvgjsPath1439" x="210" y="30" stroke="#1c538e"></use><use xlink:href="#SvgjsPath1440" x="210" y="90" stroke="#1c538e"></use><use xlink:href="#SvgjsPath1437" x="210" y="150" stroke="#1c538e" stroke-width="3"></use><use xlink:href="#SvgjsPath1441" x="210" y="210" stroke="#1c538e"></use><use xlink:href="#SvgjsPath1442" x="210" y="270" stroke="#1c538e"></use><use xlink:href="#SvgjsPath1440" x="210" y="330" stroke="#1c538e"></use><use xlink:href="#SvgjsPath1442" x="210" y="390" stroke="#1c538e"></use><use xlink:href="#SvgjsPath1441" x="210" y="450" stroke="#1c538e"></use><use xlink:href="#SvgjsPath1439" x="210" y="510" stroke="#1c538e"></use><use xlink:href="#SvgjsPath1438" x="210" y="570" stroke="#1c538e"></use><use xlink:href="#SvgjsPath1438" x="210" y="630" stroke="#1c538e"></use><use xlink:href="#SvgjsPath1438" x="210" y="690" stroke="#1c538e"></use><use xlink:href="#SvgjsPath1438" x="270" y="30" stroke="#1c538e"></use><use xlink:href="#SvgjsPath1442" x="270" y="90" stroke="#1c538e"></use><use xlink:href="#SvgjsPath1440" x="270" y="150" stroke="#1c538e"></use><use xlink:href="#SvgjsPath1441" x="270" y="210" stroke="#1c538e"></use><use xlink:href="#SvgjsPath1438" x="270" y="270" stroke="#1c538e"></use><use xlink:href="#SvgjsPath1440" x="270" y="330" stroke="#1c538e"></use><use xlink:href="#SvgjsPath1438" x="270" y="390" stroke="#1c538e"></use><use xlink:href="#SvgjsPath1438" x="270" y="450" stroke="#1c538e"></use><use xlink:href="#SvgjsPath1438" x="270" y="510" stroke="#1c538e"></use><use xlink:href="#SvgjsPath1437" x="270" y="570" stroke="#1c538e" stroke-width="3"></use><use xlink:href="#SvgjsPath1440" x="270" y="630" stroke="#1c538e"></use><use xlink:href="#SvgjsPath1438" x="270" y="690" stroke="#1c538e"></use><use xlink:href="#SvgjsPath1438" x="330" y="30" stroke="#1c538e"></use><use xlink:href="#SvgjsPath1442" x="330" y="90" stroke="#1c538e"></use><use xlink:href="#SvgjsPath1438" x="330" y="150" stroke="#1c538e"></use><use xlink:href="#SvgjsPath1438" x="330" y="210" stroke="#1c538e"></use><use xlink:href="#SvgjsPath1442" x="330" y="270" stroke="#1c538e"></use><use xlink:href="#SvgjsPath1441" x="330" y="330" stroke="#1c538e"></use><use xlink:href="#SvgjsPath1437" x="330" y="390" stroke="#1c538e" stroke-width="3"></use><use xlink:href="#SvgjsPath1441" x="330" y="450" stroke="#1c538e"></use><use xlink:href="#SvgjsPath1440" x="330" y="510" stroke="#1c538e"></use><use xlink:href="#SvgjsPath1438" x="330" y="570" stroke="#1c538e"></use><use xlink:href="#SvgjsPath1438" x="330" y="630" stroke="#1c538e"></use><use xlink:href="#SvgjsPath1438" x="330" y="690" stroke="#1c538e"></use><use xlink:href="#SvgjsPath1437" x="390" y="30" stroke="#1c538e" stroke-width="3"></use><use xlink:href="#SvgjsPath1437" x="390" y="90" stroke="#1c538e" stroke-width="3"></use><use xlink:href="#SvgjsPath1441" x="390" y="150" stroke="#1c538e"></use><use xlink:href="#SvgjsPath1438" x="390" y="210" stroke="#1c538e"></use><use xlink:href="#SvgjsPath1440" x="390" y="270" stroke="#1c538e"></use><use xlink:href="#SvgjsPath1441" x="390" y="330" stroke="#1c538e"></use><use xlink:href="#SvgjsPath1437" x="390" y="390" stroke="#1c538e" stroke-width="3"></use><use xlink:href="#SvgjsPath1440" x="390" y="450" stroke="#1c538e"></use><use xlink:href="#SvgjsPath1441" x="390" y="510" stroke="#1c538e"></use><use xlink:href="#SvgjsPath1438" x="390" y="570" stroke="#1c538e"></use><use xlink:href="#SvgjsPath1440" x="390" y="630" stroke="#1c538e"></use><use xlink:href="#SvgjsPath1438" x="390" y="690" stroke="#1c538e"></use><use xlink:href="#SvgjsPath1440" x="450" y="30" stroke="#1c538e"></use><use xlink:href="#SvgjsPath1438" x="450" y="90" stroke="#1c538e"></use><use xlink:href="#SvgjsPath1440" x="450" y="150" stroke="#1c538e"></use><use xlink:href="#SvgjsPath1438" x="450" y="210" stroke="#1c538e"></use><use xlink:href="#SvgjsPath1439" x="450" y="270" stroke="#1c538e"></use><use xlink:href="#SvgjsPath1438" x="450" y="330" stroke="#1c538e"></use><use xlink:href="#SvgjsPath1437" x="450" y="390" stroke="#1c538e" stroke-width="3"></use><use xlink:href="#SvgjsPath1442" x="450" y="450" stroke="#1c538e"></use><use xlink:href="#SvgjsPath1442" x="450" y="510" stroke="#1c538e"></use><use xlink:href="#SvgjsPath1440" x="450" y="570" stroke="#1c538e"></use><use xlink:href="#SvgjsPath1438" x="450" y="630" stroke="#1c538e"></use><use xlink:href="#SvgjsPath1437" x="450" y="690" stroke="#1c538e" stroke-width="3"></use><use xlink:href="#SvgjsPath1439" x="510" y="30" stroke="#1c538e"></use><use xlink:href="#SvgjsPath1438" x="510" y="90" stroke="#1c538e"></use><use xlink:href="#SvgjsPath1440" x="510" y="150" stroke="#1c538e"></use><use xlink:href="#SvgjsPath1440" x="510" y="210" stroke="#1c538e"></use><use xlink:href="#SvgjsPath1440" x="510" y="270" stroke="#1c538e"></use><use xlink:href="#SvgjsPath1441" x="510" y="330" stroke="#1c538e"></use><use xlink:href="#SvgjsPath1439" x="510" y="390" stroke="#1c538e"></use><use xlink:href="#SvgjsPath1440" x="510" y="450" stroke="#1c538e"></use><use xlink:href="#SvgjsPath1440" x="510" y="510" stroke="#1c538e"></use><use xlink:href="#SvgjsPath1438" x="510" y="570" stroke="#1c538e"></use><use xlink:href="#SvgjsPath1437" x="510" y="630" stroke="#1c538e" stroke-width="3"></use><use xlink:href="#SvgjsPath1437" x="510" y="690" stroke="#1c538e" stroke-width="3"></use><use xlink:href="#SvgjsPath1441" x="570" y="30" stroke="#1c538e"></use><use xlink:href="#SvgjsPath1438" x="570" y="90" stroke="#1c538e"></use><use xlink:href="#SvgjsPath1438" x="570" y="150" stroke="#1c538e"></use><use xlink:href="#SvgjsPath1440" x="570" y="210" stroke="#1c538e"></use><use xlink:href="#SvgjsPath1441" x="570" y="270" stroke="#1c538e"></use><use xlink:href="#SvgjsPath1439" x="570" y="330" stroke="#1c538e"></use><use xlink:href="#SvgjsPath1437" x="570" y="390" stroke="#1c538e" stroke-width="3"></use><use xlink:href="#SvgjsPath1441" x="570" y="450" stroke="#1c538e"></use><use xlink:href="#SvgjsPath1440" x="570" y="510" stroke="#1c538e"></use><use xlink:href="#SvgjsPath1439" x="570" y="570" stroke="#1c538e"></use><use xlink:href="#SvgjsPath1439" x="570" y="630" stroke="#1c538e"></use><use xlink:href="#SvgjsPath1440" x="570" y="690" stroke="#1c538e"></use><use xlink:href="#SvgjsPath1438" x="630" y="30" stroke="#1c538e"></use><use xlink:href="#SvgjsPath1438" x="630" y="90" stroke="#1c538e"></use><use xlink:href="#SvgjsPath1442" x="630" y="150" stroke="#1c538e"></use><use xlink:href="#SvgjsPath1440" x="630" y="210" stroke="#1c538e"></use><use xlink:href="#SvgjsPath1440" x="630" y="270" stroke="#1c538e"></use><use xlink:href="#SvgjsPath1440" x="630" y="330" stroke="#1c538e"></use><use xlink:href="#SvgjsPath1442" x="630" y="390" stroke="#1c538e"></use><use xlink:href="#SvgjsPath1438" x="630" y="450" stroke="#1c538e"></use><use xlink:href="#SvgjsPath1440" x="630" y="510" stroke="#1c538e"></use><use xlink:href="#SvgjsPath1440" x="630" y="570" stroke="#1c538e"></use><use xlink:href="#SvgjsPath1439" x="630" y="630" stroke="#1c538e"></use><use xlink:href="#SvgjsPath1440" x="630" y="690" stroke="#1c538e"></use><use xlink:href="#SvgjsPath1441" x="690" y="30" stroke="#1c538e"></use><use xlink:href="#SvgjsPath1441" x="690" y="90" stroke="#1c538e"></use><use xlink:href="#SvgjsPath1438" x="690" y="150" stroke="#1c538e"></use><use xlink:href="#SvgjsPath1437" x="690" y="210" stroke="#1c538e" stroke-width="3"></use><use xlink:href="#SvgjsPath1440" x="690" y="270" stroke="#1c538e"></use><use xlink:href="#SvgjsPath1438" x="690" y="330" stroke="#1c538e"></use><use xlink:href="#SvgjsPath1440" x="690" y="390" stroke="#1c538e"></use><use xlink:href="#SvgjsPath1440" x="690" y="450" stroke="#1c538e"></use><use xlink:href="#SvgjsPath1439" x="690" y="510" stroke="#1c538e"></use><use xlink:href="#SvgjsPath1439" x="690" y="570" stroke="#1c538e"></use><use xlink:href="#SvgjsPath1442" x="690" y="630" stroke="#1c538e"></use><use xlink:href="#SvgjsPath1440" x="690" y="690" stroke="#1c538e"></use></symbol></svg>