<svg xmlns="http://www.w3.org/2000/svg" viewBox="0 0 500 372.61"><defs><style>.cls-1{fill:#ebebeb;}.cls-2{fill:#f5f5f5;}.cls-3{fill:#f0f0f0;}.cls-4{fill:#e0e0e0;}.cls-5{fill:#fafafa;}.cls-6{fill:#f94144;}.cls-10,.cls-11,.cls-13,.cls-14,.cls-15,.cls-16,.cls-20,.cls-7,.cls-8{fill:#fff;}.cls-7{opacity:0.9;}.cls-13,.cls-8{opacity:0.6;}.cls-11,.cls-12,.cls-19,.cls-20,.cls-8,.cls-9{isolation:isolate;}.cls-9{opacity:0.1;}.cls-11,.cls-12{opacity:0.3;}.cls-14{opacity:0.4;}.cls-15,.cls-19{opacity:0.2;}.cls-16{opacity:0.8;}.cls-17{fill:#b97964;}.cls-18{fill:#263238;}.cls-20{opacity:0.7;}.cls-21{fill:#e4897b;}</style></defs><title>regassignup</title><g id="Background_Complete" data-name="Background Complete"><rect class="cls-1" y="327.45" width="500" height="0.25"/><rect class="cls-1" x="416.78" y="343.54" width="33.12" height="0.25"/><rect class="cls-1" x="322.53" y="346.26" width="8.69" height="0.25"/><rect class="cls-1" x="396.59" y="334.26" width="19.19" height="0.25"/><rect class="cls-1" x="52.46" y="335.94" width="43.19" height="0.25"/><rect class="cls-1" x="104.56" y="335.94" width="6.33" height="0.25"/><rect class="cls-1" x="131.47" y="340.16" width="93.68" height="0.25"/><path class="cls-1" d="M237,337.8H43.91a5.71,5.71,0,0,1-5.7-5.71V60.66A5.71,5.71,0,0,1,43.91,55H237a5.71,5.71,0,0,1,5.71,5.71V332.09A5.71,5.71,0,0,1,237,337.8ZM43.91,55.2a5.46,5.46,0,0,0-5.45,5.46V332.09a5.46,5.46,0,0,0,5.45,5.46H237a5.47,5.47,0,0,0,5.46-5.46V60.66A5.47,5.47,0,0,0,237,55.2Z" transform="translate(0 -54.95)"/><path class="cls-1" d="M453.31,337.8H260.21a5.72,5.72,0,0,1-5.71-5.71V60.66A5.72,5.72,0,0,1,260.21,55h193.1A5.71,5.71,0,0,1,459,60.66V332.09A5.71,5.71,0,0,1,453.31,337.8ZM260.21,55.2a5.47,5.47,0,0,0-5.46,5.46V332.09a5.47,5.47,0,0,0,5.46,5.46h193.1a5.47,5.47,0,0,0,5.46-5.46V60.66a5.47,5.47,0,0,0-5.46-5.46Z" transform="translate(0 -54.95)"/><polygon class="cls-2" points="134.39 81.51 78.88 81.51 79.73 74.01 135.24 74.01 134.39 81.51"/><polygon class="cls-2" points="130.41 116.6 74.9 116.6 75.75 109.09 131.26 109.09 130.41 116.6"/><polygon class="cls-2" points="126.44 151.68 70.93 151.68 71.78 144.17 127.29 144.17 126.44 151.68"/><polygon class="cls-2" points="122.46 186.76 66.95 186.76 67.8 179.25 123.31 179.25 122.46 186.76"/><polygon class="cls-2" points="118.49 221.84 62.98 221.84 63.83 214.34 119.34 214.34 118.49 221.84"/><polygon class="cls-2" points="114.52 256.92 59.01 256.92 59.86 249.42 115.36 249.42 114.52 256.92"/><polygon class="cls-2" points="110.54 292 55.03 292 55.88 284.5 111.39 284.5 110.54 292"/><polygon class="cls-1" points="54.81 327.7 46.12 327.7 76.55 59.08 85.24 59.08 54.81 327.7"/><polygon class="cls-1" points="111.37 327.7 102.68 327.7 133.11 59.08 141.8 59.08 111.37 327.7"/><rect class="cls-2" x="339.64" y="43.68" width="104.7" height="284.02"/><rect class="cls-1" x="345.38" y="49.92" width="93.23" height="46.33"/><rect class="cls-3" x="357.03" y="67.41" width="28.83" height="28.83"/><rect class="cls-3" x="396.22" y="75.72" width="20.52" height="20.52"/><rect class="cls-1" x="345.38" y="101.11" width="93.23" height="46.33"/><rect class="cls-3" x="357.03" y="118.6" width="13.88" height="28.83"/><rect class="cls-3" x="385.87" y="135.62" width="30.88" height="11.82"/><rect class="cls-3" x="380" y="117.99" width="29.98" height="17.63"/><rect class="cls-1" x="345.38" y="152.3" width="93.23" height="46.33"/><rect class="cls-3" x="380" y="169.79" width="5.87" height="28.83"/><rect class="cls-3" x="396.22" y="159.61" width="36" height="39.02"/><rect class="cls-1" x="345.38" y="203.49" width="93.23" height="46.33"/><rect class="cls-3" x="357.03" y="220.98" width="28.83" height="28.83"/><rect class="cls-3" x="396.22" y="229.29" width="20.52" height="20.52"/><rect class="cls-1" x="345.38" y="254.68" width="93.23" height="46.33"/><rect class="cls-3" x="357.03" y="272.17" width="28.83" height="28.83"/><rect class="cls-3" x="396.22" y="280.48" width="20.52" height="20.52"/><rect class="cls-3" x="354.29" y="29.4" width="31.58" height="14.28"/><rect class="cls-3" x="397.97" y="36.54" width="16.25" height="7.14"/><rect class="cls-1" x="97.36" y="301.34" width="90.67" height="81.31" transform="translate(285.4 629.04) rotate(180)"/><rect class="cls-4" x="156.48" y="301.34" width="31.56" height="81.31" transform="translate(344.52 629.04) rotate(180)"/><rect class="cls-2" x="79.32" y="236.82" width="90.67" height="66.19" transform="translate(249.31 484.89) rotate(180)"/><rect class="cls-1" x="138.44" y="236.82" width="31.56" height="66.19" transform="translate(308.43 484.89) rotate(180)"/><rect class="cls-5" x="100.6" y="204.43" width="87.44" height="32.4" transform="translate(288.64 386.29) rotate(180)"/><rect class="cls-3" x="157.61" y="204.43" width="30.43" height="32.4" transform="translate(345.64 386.29) rotate(180)"/><rect class="cls-3" x="65.68" y="29.4" width="123.86" height="7.14"/><rect class="cls-2" x="74.9" y="19.3" width="17.99" height="10.1"/><rect class="cls-3" x="97.04" y="10.33" width="19.06" height="19.06"/><rect class="cls-1" x="122.97" y="19.86" width="9.53" height="9.53"/><path class="cls-2" d="M148.64,79.75a4.94,4.94,0,1,1-4.93-4.93A4.94,4.94,0,0,1,148.64,79.75Z" transform="translate(0 -54.95)"/><polygon class="cls-1" points="154.88 29.4 160.87 10.33 170.76 10.33 176.23 29.73 154.88 29.4"/></g><g id="Background_Simple" data-name="Background Simple"><path class="cls-6" d="M104.56,101.63c27.91-59.45,127.05-51.07,165.31-9.26s50.7,68.6,85.21,53,78.52-11.44,81,38.17S398.21,291.78,334,309.13s-64.16,78.76-149.1,66.37c-46.31-6.76-47.36-56.86-40.82-98.3S72.18,170.57,104.56,101.63Z" transform="translate(0 -54.95)"/><path class="cls-7" d="M104.56,101.63c27.91-59.45,127.05-51.07,165.31-9.26s50.7,68.6,85.21,53,78.52-11.44,81,38.17S398.21,291.78,334,309.13s-64.16,78.76-149.1,66.37c-46.31-6.76-47.36-56.86-40.82-98.3S72.18,170.57,104.56,101.63Z" transform="translate(0 -54.95)"/></g><g id="Shadow"><ellipse id="_Path_" data-name="&lt;Path&gt;" class="cls-2" cx="250" cy="361.29" rx="193.89" ry="11.32"/></g><g id="Screen"><path class="cls-6" d="M327.62,118.37V414.84a4.33,4.33,0,0,1-4.39,4.34h-138a3.84,3.84,0,0,1-2.76-1.11,4,4,0,0,1-1.17-2.87V118a3.5,3.5,0,0,1,3.36-3.63h39.19a2.76,2.76,0,0,1,2.52,1.76l1.63,4a2.75,2.75,0,0,0,2.52,1.75h48a2.73,2.73,0,0,0,2.52-1.72l1.63-4a2.76,2.76,0,0,1,2.52-1.77h38.62A4,4,0,0,1,327.62,118.37Z" transform="translate(0 -54.95)"/><rect class="cls-8" x="199.51" y="123.6" width="2.04" height="2.72" transform="translate(401.06 194.97) rotate(180)"/><rect class="cls-8" x="196.19" y="122.69" width="2.04" height="3.62" transform="translate(394.41 194.06) rotate(180)"/><rect class="cls-8" x="192.86" y="121.79" width="2.04" height="4.53" transform="translate(387.77 193.16) rotate(180)"/><rect class="cls-8" x="189.54" y="120.88" width="2.04" height="5.44" transform="translate(381.12 192.25) rotate(180)"/><rect class="cls-8" x="307.73" y="67.66" width="1.21" height="2.72"/><rect class="cls-8" x="309.77" y="121.62" width="9.63" height="4.7" transform="translate(629.18 192.98) rotate(180)"/><g class="cls-9"><path class="cls-10" d="M247.14,121.88,205,279.64h0l-.47,1.78h0l-.76,2.85h0l-.48,1.77-22,82.38v-99.7l41.21-154.36h1.34a2.75,2.75,0,0,1,2.52,1.76l1.63,4a2.74,2.74,0,0,0,2.52,1.75Z" transform="translate(0 -54.95)"/><polygon class="cls-10" points="327.62 147.5 327.62 247.2 301.36 345.6 300.72 347.99 296.38 364.22 269.77 364.22 274.1 348 274.8 345.39 278.27 332.36 278.97 329.75 280.37 324.53 281.06 321.93 282.45 316.71 283.14 314.11 305.04 232.09 305.04 232.08 306.05 228.29 306.05 228.28 327.62 147.5"/><path class="cls-10" d="M261.56,121.88,219.71,278.66l-.26.94-2.29,8.59-.25.94L182.49,418.07a4,4,0,0,1-1.17-2.87V400l29.61-110.91.25-.94,2.29-8.59.25-.94,41.86-156.78Z" transform="translate(0 -54.95)"/></g><rect class="cls-11" x="181.32" y="78.75" width="146.3" height="272.35"/><path class="cls-6" d="M299.47,253.38h0a5.1,5.1,0,0,0,5.1-5.1V167.83a5.1,5.1,0,0,0-5.1-5.09h0a5.1,5.1,0,0,0-5.1,5.09v80.45A5.1,5.1,0,0,0,299.47,253.38Z" transform="translate(0 -54.95)"/><path class="cls-12" d="M299.47,251.38a3.1,3.1,0,0,1-3.1-3.1V167.83a3.1,3.1,0,0,1,6.2,0v80.45A3.1,3.1,0,0,1,299.47,251.38Z" transform="translate(0 -54.95)"/><circle class="cls-6" cx="299.47" cy="175.76" r="7.39" transform="translate(78.01 388.26) rotate(-80.78)"/><path class="cls-6" d="M269.47,253.38h0a5.1,5.1,0,0,0,5.1-5.1V167.83a5.1,5.1,0,0,0-5.1-5.09h0a5.1,5.1,0,0,0-5.1,5.09v80.45A5.1,5.1,0,0,0,269.47,253.38Z" transform="translate(0 -54.95)"/><path class="cls-12" d="M269.47,251.38a3.1,3.1,0,0,1-3.1-3.1V167.83a3.1,3.1,0,0,1,6.2,0v80.45A3.1,3.1,0,0,1,269.47,251.38Z" transform="translate(0 -54.95)"/><circle class="cls-6" cx="269.47" cy="235.76" r="7.39" transform="translate(-6.41 409.03) rotate(-80.78)"/><path class="cls-6" d="M239.47,253.38h0a5.1,5.1,0,0,0,5.1-5.1V167.83a5.1,5.1,0,0,0-5.1-5.09h0a5.1,5.1,0,0,0-5.1,5.09v80.45A5.1,5.1,0,0,0,239.47,253.38Z" transform="translate(0 -54.95)"/><path class="cls-12" d="M239.47,251.38a3.1,3.1,0,0,1-3.1-3.1V167.83a3.1,3.1,0,0,1,6.2,0v80.45A3.1,3.1,0,0,1,239.47,251.38Z" transform="translate(0 -54.95)"/><circle class="cls-6" cx="239.47" cy="195.76" r="7.39" transform="translate(7.88 345.83) rotate(-80.78)"/><path class="cls-6" d="M209.47,253.38h0a5.1,5.1,0,0,0,5.1-5.1V167.83a5.1,5.1,0,0,0-5.1-5.09h0a5.1,5.1,0,0,0-5.1,5.09v80.45A5.1,5.1,0,0,0,209.47,253.38Z" transform="translate(0 -54.95)"/><path class="cls-12" d="M209.47,251.38a3.1,3.1,0,0,1-3.1-3.1V167.83a3.1,3.1,0,0,1,6.2,0v80.45A3.1,3.1,0,0,1,209.47,251.38Z" transform="translate(0 -54.95)"/><circle class="cls-6" cx="209.47" cy="225.76" r="7.39" transform="translate(-46.93 341.41) rotate(-80.78)"/><circle class="cls-13" cx="299.47" cy="175.76" r="7.39" transform="translate(78.01 388.26) rotate(-80.78)"/><path class="cls-13" d="M299.47,181.15a5.39,5.39,0,1,1,5.39-5.39A5.4,5.4,0,0,1,299.47,181.15Z" transform="translate(0 -54.95)"/><circle class="cls-13" cx="269.47" cy="235.76" r="7.39" transform="translate(-6.41 409.03) rotate(-80.78)"/><path class="cls-13" d="M269.47,241.15a5.39,5.39,0,1,1,5.39-5.39A5.4,5.4,0,0,1,269.47,241.15Z" transform="translate(0 -54.95)"/><circle class="cls-13" cx="239.47" cy="195.76" r="7.39" transform="translate(7.88 345.83) rotate(-80.78)"/><path class="cls-13" d="M239.47,201.15a5.39,5.39,0,1,1,5.39-5.39A5.4,5.4,0,0,1,239.47,201.15Z" transform="translate(0 -54.95)"/><circle class="cls-13" cx="209.47" cy="225.76" r="7.39" transform="translate(-46.93 341.41) rotate(-80.78)"/><path class="cls-13" d="M209.47,231.15a5.39,5.39,0,1,1,5.39-5.39A5.4,5.4,0,0,1,209.47,231.15Z" transform="translate(0 -54.95)"/><rect class="cls-6" x="188.39" y="216.61" width="132.16" height="123.8" rx="2.75"/><rect class="cls-12" x="188.39" y="216.61" width="132.16" height="123.8" rx="2.75"/><path class="cls-13" d="M242.55,351.81v10.64L248,363a28.25,28.25,0,0,0,4.08,9.82l-3.52,4.26,7.53,7.52,4.25-3.52a28.24,28.24,0,0,0,9.83,4.09l.51,5.48h10.65l.51-5.48a28.24,28.24,0,0,0,9.83-4.09l4.25,3.52,7.53-7.52L300,372.79a28.46,28.46,0,0,0,4.09-9.82l5.48-.52V351.81l-5.48-.52a28.51,28.51,0,0,0-4.09-9.83l3.52-4.25L296,329.68l-4.25,3.52a28.41,28.41,0,0,0-9.83-4.08l-.51-5.48H270.71l-.51,5.48a28.41,28.41,0,0,0-9.83,4.08l-4.25-3.52-7.53,7.53,3.52,4.25a28.51,28.51,0,0,0-4.09,9.83ZM276,342.72a14.41,14.41,0,1,1-14.41,14.41A14.41,14.41,0,0,1,276,342.72Z" transform="translate(0 -54.95)"/><path class="cls-14" d="M199.41,321.25v8.34l4.3.4a22.06,22.06,0,0,0,3.2,7.7L204.15,341l5.9,5.89,3.33-2.76a22.24,22.24,0,0,0,7.7,3.21l.41,4.29h8.34l.4-4.29a22.16,22.16,0,0,0,7.7-3.21l3.33,2.76,5.9-5.89-2.76-3.34a22.08,22.08,0,0,0,3.21-7.7l4.29-.4v-8.34l-4.29-.41a22.24,22.24,0,0,0-3.21-7.7l2.76-3.33-5.9-5.9-3.33,2.76a22.33,22.33,0,0,0-7.7-3.2l-.4-4.3h-8.34l-.41,4.3a22.42,22.42,0,0,0-7.7,3.2l-3.33-2.76-5.9,5.9,2.76,3.33a22.22,22.22,0,0,0-3.2,7.7Zm26.25-7.12a11.29,11.29,0,1,1-11.29,11.29A11.29,11.29,0,0,1,225.66,314.13Z" transform="translate(0 -54.95)"/><path class="cls-15" d="M245.92,295.5v7l3.61.34a18.89,18.89,0,0,0,2.69,6.47l-2.32,2.79,5,5,2.79-2.32a18.89,18.89,0,0,0,6.47,2.69l.34,3.61h7l.34-3.61a18.81,18.81,0,0,0,6.47-2.69l2.8,2.32,4.95-5-2.32-2.79a18.89,18.89,0,0,0,2.69-6.47l3.61-.34v-7l-3.61-.34a18.81,18.81,0,0,0-2.69-6.47l2.32-2.8-4.95-4.95-2.8,2.32a18.43,18.43,0,0,0-6.47-2.69l-.34-3.61h-7l-.34,3.61a18.51,18.51,0,0,0-6.47,2.69l-2.79-2.32-5,4.95,2.32,2.8a18.81,18.81,0,0,0-2.69,6.47Zm22.05-6a9.49,9.49,0,1,1-9.49,9.48A9.49,9.49,0,0,1,268,289.52Z" transform="translate(0 -54.95)"/><polygon class="cls-13" points="233.69 268.31 227.81 262.43 219.78 264.58 217.62 272.62 223.5 278.5 231.54 276.35 233.69 268.31"/><polygon class="cls-16" points="277.33 291.95 267.83 295.94 266.54 306.16 274.74 312.4 284.24 308.41 285.54 298.19 277.33 291.95"/><polygon class="cls-14" points="273.87 247.46 273.87 240.64 267.97 237.23 262.06 240.64 262.06 247.46 267.97 250.87 273.87 247.46"/></g><g id="Character_2" data-name="Character 2"><path class="cls-17" d="M411.19,237.61l10.64,8.64s2.6.06,3.42.92,4,7.24,3.51,8.11-5.69,2.59-6.8,1.56-3-6.94-3-7.57l-13.6-9.12Z" transform="translate(0 -54.95)"/><path class="cls-18" d="M417.09,241.41l-2.38,5.19s-14.63-6.85-17.8-10.84c-.81-1-1.93-2.67-3.14-4.54-2-3.09-4.24-6.81-5.8-9.42-1.16-2-1.94-3.28-1.94-3.28l8.28-13.06c1.81,1.39,7.35,23.71,8.34,24.91S417.09,241.41,417.09,241.41Z" transform="translate(0 -54.95)"/><path class="cls-19" d="M393.77,231.22c-2-3.09-4.24-6.81-5.8-9.42l3.85-9.5S393.91,223.2,393.77,231.22Z" transform="translate(0 -54.95)"/><path class="cls-17" d="M326.33,188.05l-11.22-8s-1.34-2.23-2.49-2.52-8.25.15-8.79,1,.57,6.23,2,6.68,7.53-.8,8.06-1.14l11.39,7.87Z" transform="translate(0 -54.95)"/><polygon class="cls-17" points="414.85 356.84 408.57 357.95 406 349.39 403.65 341.53 410.89 339 412.99 348.45 414.85 356.84"/><polygon class="cls-19" points="413.02 348.64 406.03 349.56 403.66 341.62 410.89 339.05 413.02 348.64"/><polygon class="cls-17" points="372.94 357 366.57 357 365.52 348.44 364.57 340.46 372.14 339.31 372.57 348.69 372.94 357"/><polygon class="cls-19" points="372.57 349.25 365.52 348.94 364.57 340.71 372.14 339.44 372.57 349.25"/><path class="cls-6" d="M413.61,396.73l-10.32,1.82c-10.41-25.95-17.82-47.61-23.05-65.58-2.82-9.7-5.05-18.32-6.73-26l.43,28.24V399H363.53c-25.49-121-7.42-149.13-7.42-149.13l30.49-5.1a139.21,139.21,0,0,1,2.56,17.13L390.53,272l11.93,61.57Z" transform="translate(0 -54.95)"/><polygon class="cls-6" points="401.68 342.32 414.48 338.07 414.3 343.52 403.72 346.9 401.68 342.32"/><polygon class="cls-8" points="401.68 342.32 414.48 338.07 414.3 343.52 403.72 346.9 401.68 342.32"/><polygon class="cls-6" points="362.17 342.91 375.51 340.96 374.39 346.29 363.38 347.77 362.17 342.91"/><polygon class="cls-8" points="362.17 342.91 375.51 340.96 374.39 346.29 363.38 347.77 362.17 342.91"/><path class="cls-19" d="M381.65,337.72c-.48-1.61-1-3.19-1.45-4.75-2.55-8.8-4.26-16.72-6.26-23.82v0l-1-13.08s6.52-14.37,4.08-24.49c.23.58,4.54,11.6,2.85,22.6A320.41,320.41,0,0,0,381.65,337.72Z" transform="translate(0 -54.95)"/><path class="cls-17" d="M382.52,192.33a1.35,1.35,0,0,1-.26.15,11.5,11.5,0,0,1-4.16,1.4c-4.25.41-7-.52-8.6-2.63h0c-2.21-3.14-2.21-8.19-1.07-14.13a22.73,22.73,0,0,1,2.22-6.83s0-.08,0-.1.08-.17.13-.24a8.26,8.26,0,0,1,6.66-4.21,16.81,16.81,0,0,1,3.59.06C392.76,167.2,392.35,186.82,382.52,192.33Z" transform="translate(0 -54.95)"/><path class="cls-19" d="M382.26,192.48a11.23,11.23,0,0,1-4.14,1.24c-4.25.41-7-.66-8.58-2.79a11.76,11.76,0,0,0,7.49.35A6.12,6.12,0,0,1,382.26,192.48Z" transform="translate(0 -54.95)"/><path class="cls-17" d="M383.13,202c1.05,3.27-3.14,5.05-3.14,5.05-7.37-2.32-9.05-6-9.05-6,5.6-3.66,3-12.2,3-12.2l1.26.48,8.58.82s-1.89,4.71-2.1,5.77c0,0,0,0,0,0C380.65,201.54,383.13,202,383.13,202Z" transform="translate(0 -54.95)"/><path class="cls-18" d="M370.65,170.21s-1.71,8.11,5.59,12.64c0,0,2.23,8.94,7.12,9.7,6.67,1,13.81-7.71,12.75-17.71C394.74,161.87,375.82,158.37,370.65,170.21Z" transform="translate(0 -54.95)"/><path class="cls-17" d="M372.62,180c.17-1.28,1.47-3.29,3.42-2.74s2.5,5.78-2.7,6.26C372.59,183.58,372.26,182.65,372.62,180Z" transform="translate(0 -54.95)"/><path class="cls-18" d="M365.89,410.74H373a.66.66,0,0,1,.63.51l1.46,6.6a1.09,1.09,0,0,1-.84,1.29,1,1,0,0,1-.24,0c-2.92-.05-3.15-.23-6.81-.23-2.25,0-9,.24-12.15.24s-3.52-3.07-2.25-3.36c5.71-1.24,10-3,11.84-4.61A1.78,1.78,0,0,1,365.89,410.74Z" transform="translate(0 -54.95)"/><path class="cls-6" d="M363.44,412a2.24,2.24,0,0,1-1.42-.37,1,1,0,0,1-.37-.95.54.54,0,0,1,.3-.49c.82-.42,3.22,1,3.48,1.22a.17.17,0,0,1,.09.17.19.19,0,0,1-.14.15A9,9,0,0,1,363.44,412Zm-1.1-1.53a.45.45,0,0,0-.23,0s-.1.07-.11.21a.72.72,0,0,0,.24.63,3.6,3.6,0,0,0,2.64.14A7.18,7.18,0,0,0,362.34,410.51Z" transform="translate(0 -54.95)"/><path class="cls-6" d="M365.34,411.78h-.09c-.76-.41-2.24-2-2.09-2.83a.57.57,0,0,1,.57-.46,1,1,0,0,1,.74.23c.86.69,1,2.82,1,2.93a.22.22,0,0,1-.09.16A.14.14,0,0,1,365.34,411.78Zm-1.49-3h-.09c-.22,0-.24.14-.25.18-.1.48.85,1.72,1.61,2.29a4.2,4.2,0,0,0-.88-2.32A.63.63,0,0,0,363.85,408.77Z" transform="translate(0 -54.95)"/><path class="cls-18" d="M408.33,410.74h7.11a.64.64,0,0,1,.63.51l1.47,6.6a1.09,1.09,0,0,1-.85,1.29,1,1,0,0,1-.24,0c-2.91-.05-3.15-.23-6.8-.23-2.25,0-9,.24-12.16.24s-3.51-3.07-2.24-3.36c5.71-1.24,10-3,11.83-4.61A1.8,1.8,0,0,1,408.33,410.74Z" transform="translate(0 -54.95)"/><path class="cls-6" d="M405.88,412a2.22,2.22,0,0,1-1.42-.37,1,1,0,0,1-.37-.95.53.53,0,0,1,.3-.49c.82-.42,3.21,1,3.48,1.22a.16.16,0,0,1,.08.17.18.18,0,0,1-.13.15A9.16,9.16,0,0,1,405.88,412Zm-1.1-1.53a.45.45,0,0,0-.23,0c-.05,0-.1.07-.11.21a.71.71,0,0,0,.23.63,3.6,3.6,0,0,0,2.64.14A7.06,7.06,0,0,0,404.78,410.51Z" transform="translate(0 -54.95)"/><path class="cls-6" d="M407.77,411.78h-.08c-.77-.41-2.25-2-2.09-2.83a.57.57,0,0,1,.56-.46,1,1,0,0,1,.75.23c.85.69,1,2.82,1,2.93a.21.21,0,0,1-.08.16A.17.17,0,0,1,407.77,411.78Zm-1.49-3h-.08c-.23,0-.25.14-.26.18-.09.48.85,1.72,1.62,2.29a4.2,4.2,0,0,0-.88-2.32A.64.64,0,0,0,406.28,408.77Z" transform="translate(0 -54.95)"/><path class="cls-18" d="M356.11,249.93s-5.82-35.44,4.18-51.34c0,0,20-1.24,34,6.87,0,0-5.81,15.78-6.67,44.47Z" transform="translate(0 -54.95)"/><path class="cls-19" d="M354.29,222.81c-.43-4.81,1-9.44,1.2-13.52a39.09,39.09,0,0,0,6.57-7.5S363.88,216.15,354.29,222.81Z" transform="translate(0 -54.95)"/><path class="cls-18" d="M362.76,198.52S343,196.21,340,195c-1.86-.79-16.41-10.29-16.41-10.29l-3.41,5.08s14.89,12,17.4,13.4c5.9,3.24,19.17,7.81,19.17,7.81S364.75,205.39,362.76,198.52Z" transform="translate(0 -54.95)"/><path class="cls-18" d="M391.82,168.45s6.79-5.78,13.53-2.15-1.11,17.62.86,21.91,6.24,4,.85,6.79-.17,5.16-.17,5.16-4.82,1.64-5.22-2.34-2.14-7.25-3.7-7.93,2.65-8.22,1.19-11.95-5.69-3.42-5.69-3.42Z" transform="translate(0 -54.95)"/><path class="cls-18" d="M381.06,165.8s-8.56-5.36-12.59-1.55c-6.22,5.89,2.65,14.35,12,18.36Z" transform="translate(0 -54.95)"/></g><g id="Character_1" data-name="Character 1"><g id="_Group_" data-name="&lt;Group&gt;"><path class="cls-6" d="M199.53,274.19l-70.14-78.1a17.08,17.08,0,0,0-18.67-23.93,1.2,1.2,0,0,0-.69,2l9.2,10.25a1.49,1.49,0,0,1,.31,1.47l-2,6.11a1.51,1.51,0,0,1-1.12,1l-6.29,1.33a1.51,1.51,0,0,1-1.43-.47l-9.2-10.24a1.2,1.2,0,0,0-2,.48,17.07,17.07,0,0,0,21.79,21.11l70.14,78.1a17.08,17.08,0,0,0,18.66,23.93,1.2,1.2,0,0,0,.7-2L199.56,295a1.51,1.51,0,0,1-.31-1.48l2-6.1a1.49,1.49,0,0,1,1.12-1l6.28-1.33a1.5,1.5,0,0,1,1.43.47l9.21,10.24a1.19,1.19,0,0,0,2-.48,17.08,17.08,0,0,0-21.79-21.11Z" transform="translate(0 -54.95)"/><path class="cls-20" d="M199.53,274.19l-70.14-78.1a17.08,17.08,0,0,0-18.67-23.93,1.2,1.2,0,0,0-.69,2l9.2,10.25a1.49,1.49,0,0,1,.31,1.47l-2,6.11a1.51,1.51,0,0,1-1.12,1l-6.29,1.33a1.51,1.51,0,0,1-1.43-.47l-9.2-10.24a1.2,1.2,0,0,0-2,.48,17.07,17.07,0,0,0,21.79,21.11l70.14,78.1a17.08,17.08,0,0,0,18.66,23.93,1.2,1.2,0,0,0,.7-2L199.56,295a1.51,1.51,0,0,1-.31-1.48l2-6.1a1.49,1.49,0,0,1,1.12-1l6.28-1.33a1.5,1.5,0,0,1,1.43.47l9.21,10.24a1.19,1.19,0,0,0,2-.48,17.08,17.08,0,0,0-21.79-21.11Z" transform="translate(0 -54.95)"/><path class="cls-21" d="M120.29,182.16s-20.83,2.73-23.53,6.44-2.85,7.16,9.46,10.7l3.61-2.63s-5.11-1.95-4.51-3.15,15-.75,15-.75Z" transform="translate(0 -54.95)"/><path class="cls-6" d="M128.11,181.89,125.21,192l-4.87.74-10.2,1.55-.3-4.08-.59-8.06S119.27,180.14,128.11,181.89Z" transform="translate(0 -54.95)"/><path class="cls-19" d="M123,186.17l-2.63,6.58-10.2,1.55-.3-4.08C115,186.19,123,186.17,123,186.17Z" transform="translate(0 -54.95)"/><polygon class="cls-21" points="120.97 356.78 129.07 357.63 129.49 352.93 130.59 340.14 122.48 339.28 121.25 353.41 120.97 356.78"/><polygon class="cls-21" points="80.48 355.75 88.34 355.75 88.42 353.97 88.42 353.75 88.83 342.35 88.83 342.12 89 337.75 81.13 337.75 80.48 355.75"/><polygon class="cls-19" points="122.48 339.28 121.25 353.41 129.49 352.93 130.59 340.14 122.48 339.28"/><polygon class="cls-19" points="80.53 354.75 80.55 354.75 88.42 353.75 88.42 353.75 88.83 342.75 88.83 342.75 80.94 343.38 80.55 354.4 80.53 354.75"/><path class="cls-18" d="M89.43,410.23H79.88a.68.68,0,0,0-.67.54l-1.55,7a1.16,1.16,0,0,0,.9,1.37,1.07,1.07,0,0,0,.25,0c3.09-.05,5.34-.24,9.22-.24,2.39,0,9.6.25,12.9.25s3.73-3.26,2.38-3.56c-6.06-1.32-10.62-3.15-12.56-4.89A1.88,1.88,0,0,0,89.43,410.23Z" transform="translate(0 -54.95)"/><path class="cls-18" d="M129.93,410h-9.55a.68.68,0,0,0-.67.54l-1.55,7a1.16,1.16,0,0,0,.9,1.37,1.07,1.07,0,0,0,.25,0c3.09-.05,5.34-.24,9.22-.24,2.39,0,9.6.25,12.9.25s3.73-3.26,2.38-3.56c-6.06-1.32-10.62-3.15-12.56-4.89A1.88,1.88,0,0,0,129.93,410Z" transform="translate(0 -54.95)"/><path class="cls-18" d="M131.34,406.7H119.81S116.5,307,104,273.5c1.53,62.33-13.16,134.2-13.16,134.2H79.48s5.21-56.27,5.21-80.88c0-43.61-12-64.9-.32-93.12h41.72C136.31,295.25,140.24,338.7,131.34,406.7Z" transform="translate(0 -54.95)"/><polygon class="cls-6" points="132.63 348.5 132.07 351.75 118.44 351.75 118.44 348.75 132.63 348.5"/><polygon class="cls-6" points="92.18 349.75 90.87 352.75 79.44 352.75 78.69 349.75 92.18 349.75"/><path class="cls-21" d="M162,185.55c-.31.25-.62.48-.94.69a10.84,10.84,0,0,1-6.21,1.85,11.64,11.64,0,0,1-1.67-.14,9.89,9.89,0,0,1-8.34-8.51c-.79-5.54,2-9.17,6.3-15.68a10.66,10.66,0,0,1,18.15.21C173.6,171,167.55,180.93,162,185.55Z" transform="translate(0 -54.95)"/><path class="cls-19" d="M154.88,188.09a11.64,11.64,0,0,1-1.67-.14,9.9,9.9,0,0,1-7.06-4.77,11.54,11.54,0,0,1,2.68-1.29A15.36,15.36,0,0,1,154.88,188.09Z" transform="translate(0 -54.95)"/><path class="cls-21" d="M136.31,186.87c1,5.08,9.31,9.63,9.31,9.63s5.66,2.2,5.76,0c-2.44-2.51-2.82-4.8-2.15-6.87a10.09,10.09,0,0,1,2.07-3.37,17.76,17.76,0,0,1,1.54-1.59l-4.2-13.81C146.48,176.32,141.77,185.81,136.31,186.87Z" transform="translate(0 -54.95)"/><path class="cls-18" d="M172.79,164.92c-.85-4.74-3.25-5-3.25-5-.23-3.78-9.15-7.6-15-6.37s-9.82,6.38-11.42,11.12c-2.32,6.91-.92,15.48-.92,15.48h0c4.73,3.6,9.65,4.26,11.14,1.6s5.19-3.58,5.19-3.58c2.25,1.95,5.81,0,5.81,0s4-1.39,4.73-5.33S173.5,168.92,172.79,164.92Z" transform="translate(0 -54.95)"/><path class="cls-21" d="M158.37,176a5,5,0,0,0,0,4.32c.87,1.48,3,.31,4.24-1.71,1.06-1.79,1.94-4.77.35-5.47S159.17,174,158.37,176Z" transform="translate(0 -54.95)"/><path class="cls-18" d="M159.39,153.54c8.77-2.61,15.83,11.78,15.49,19.41-.29,6.2-6.8,5.45-6.8,5.45s3.6-.24,3.25-4.59c0,0-1.56,5.33-5.05,1.83s.65-11.84.65-11.84Z" transform="translate(0 -54.95)"/><path class="cls-19" d="M103.07,314.25a284.63,284.63,0,0,0-4.41-28.78c-11.81-14.84-5.36-28.54-5.36-28.54C94.88,266.46,104,273.5,104,273.5,104.36,286.91,103.94,300.76,103.07,314.25Z" transform="translate(0 -54.95)"/><path class="cls-6" d="M136.29,184.59s2.53-1.88,7.22.89a15.29,15.29,0,0,1,6.22,8.07Z" transform="translate(0 -54.95)"/><path class="cls-6" d="M130.59,253.38s0-24.33,25.44-53.78c0,0-11.42-15.94-27.92-17.71,0,0-30.46,10.45-47.05,55Z" transform="translate(0 -54.95)"/><path class="cls-8" d="M156,199.6q-4,4.68-7.25,9.16a114.37,114.37,0,0,0-10,16.55c-8.18,16.66-8.18,28.07-8.18,28.07l-49.54-16.5c16.59-44.54,47.05-55,47.05-55C144.61,183.66,156,199.6,156,199.6Z" transform="translate(0 -54.95)"/><path class="cls-6" d="M130.9,249.89c-.11.82-.18,1.5-.22,2L81.73,235.12c.24-.63.49-1.25.74-1.86Z" transform="translate(0 -54.95)"/><path class="cls-6" d="M131.76,244.94c-.15.71-.29,1.37-.4,2-17-6.55-36.27-13.86-47.2-17.64.27-.62.55-1.22.83-1.82C97.18,231.67,118.28,239.73,131.76,244.94Z" transform="translate(0 -54.95)"/><path class="cls-6" d="M133.05,239.92c-.2.67-.38,1.32-.55,1.94C119,236,98.75,227.49,86.89,223.57c.31-.61.62-1.2.93-1.79C99.9,225.8,119.74,234.15,133.05,239.92Z" transform="translate(0 -54.95)"/><path class="cls-6" d="M134.72,234.79c-.23.66-.46,1.3-.67,1.92-13.14-6.34-32-15-44.12-18.71.34-.6.69-1.19,1-1.76C103.31,220.06,121.75,228.53,134.72,234.79Z" transform="translate(0 -54.95)"/><path class="cls-6" d="M136.79,229.62c-.28.63-.54,1.25-.78,1.87-12.57-6.72-30-15.36-42.72-18.91.39-.59.79-1.18,1.19-1.75C107.35,214.54,124.41,223,136.79,229.62Z" transform="translate(0 -54.95)"/><path class="cls-6" d="M139.23,224.39c-.31.62-.61,1.24-.9,1.85-11.82-7-27.9-15.46-41.29-18.94.44-.59.88-1.16,1.33-1.73C111.86,209.23,127.59,217.52,139.23,224.39Z" transform="translate(0 -54.95)"/><path class="cls-6" d="M142,219.17c-.35.61-.68,1.21-1,1.8-11-7.08-25.78-15.32-39.79-18.84.5-.58,1-1.14,1.52-1.69C116.78,204.13,131.25,212.18,142,219.17Z" transform="translate(0 -54.95)"/><path class="cls-6" d="M145.16,214.06c-.37.56-.72,1.12-1.07,1.68-10.08-7.09-23.7-15-38.13-18.63.57-.56,1.13-1.1,1.69-1.62C121.88,199.29,135.22,207.08,145.16,214.06Z" transform="translate(0 -54.95)"/><path class="cls-6" d="M148.64,209l-1.15,1.62c-9.15-7-21.63-14.57-36.16-18.33.66-.54,1.3-1.06,1.93-1.55C127.45,194.64,139.63,202.07,148.64,209Z" transform="translate(0 -54.95)"/><path class="cls-6" d="M152.45,203.92c-.42.53-.83,1.05-1.23,1.58a91.63,91.63,0,0,0-33.71-17.9c.77-.52,1.51-1,2.22-1.43A94.17,94.17,0,0,1,152.45,203.92Z" transform="translate(0 -54.95)"/><path class="cls-6" d="M156,199.6l-.79.93a82,82,0,0,0-30.42-17.2c1.23-.61,2.16-1,2.71-1.22a83.69,83.69,0,0,1,25.65,14.07h0A40.61,40.61,0,0,1,156,199.6Z" transform="translate(0 -54.95)"/><path class="cls-19" d="M148.78,208.76a114.37,114.37,0,0,0-10,16.55A25,25,0,0,1,148,205.5Z" transform="translate(0 -54.95)"/><path class="cls-21" d="M156,207.12V238L168,259.42l4.91,5.47s-5.74,3.54-7.32,1.27a37,37,0,0,1-3.16-6.74s-11.86-15.93-13.72-19.73-2.53-26.81-2.53-26.81Z" transform="translate(0 -54.95)"/><path class="cls-6" d="M156,199.6c1.88,5.2,1.87,22.92,1.87,22.92l-13.33,1.17-1.06-7a24.42,24.42,0,0,1,4.58-12.61A11.13,11.13,0,0,1,156,199.6Z" transform="translate(0 -54.95)"/></g></g></svg>